<svg id="a451eacd-fdaf-44f3-809a-e1799629e604" data-name="Layer 1" xmlns="http://www.w3.org/2000/svg" width="1050.50353" height="753.76267" viewBox="0 0 1050.50353 753.76267"><title>regain_focus</title><path d="M279.87606,777.53777c-.72508-.72037-17.92808-18.14191-32.51062-59.47976-13.3778-37.92552-26.87794-104.06143-15.21265-203.76178,22.10036-188.876-91.22771-309.2471-92.37693-310.44114l3.35459-3.2215c.29127.3028,29.42935,30.93317,55.3538,84.70623A416.27955,416.27955,0,0,1,236.77186,514.837C214.70962,703.39054,282.47,773.55551,283.15671,774.24318Z" transform="translate(-74.74823 -73.11866)" fill="#f2f2f2"/><circle cx="30.22929" cy="97.34925" r="30.22227" fill="#f2f2f2"/><circle cx="149.29413" cy="183.14603" r="30.22227" fill="#f2f2f2"/><circle cx="103.70339" cy="270.85628" r="30.22227" fill="#f2f2f2"/><circle cx="195.37911" cy="313.08571" r="30.22227" fill="#6c63ff"/><circle cx="119.16754" cy="432.20328" r="30.22227" fill="#f2f2f2"/><path d="M297.87666,774.28782s-47.00551-65.10167,27.83955-140.81008Z" transform="translate(-74.74823 -73.11866)" fill="#f2f2f2"/><path d="M261.44859,781.7931S229.32192,708.20219,126.06385,734.112Z" transform="translate(-74.74823 -73.11866)" fill="#f2f2f2"/><path d="M920.12394,821.53777c.72508-.72037,17.92808-18.14191,32.51062-59.47976,13.3778-37.92552,26.87794-104.06143,15.21265-203.76178-22.10036-188.876,91.22771-309.2471,92.37693-310.44114l-3.35459-3.2215c-.29127.3028-29.42935,30.93317-55.3538,84.70623A416.27955,416.27955,0,0,0,963.22814,558.837c22.06224,188.5535-45.69813,258.71847-46.38485,259.40614Z" transform="translate(-74.74823 -73.11866)" fill="#f2f2f2"/><circle cx="1020.27425" cy="141.34925" r="30.22227" fill="#f2f2f2"/><circle cx="901.20941" cy="227.14603" r="30.22227" fill="#f2f2f2"/><circle cx="946.80014" cy="314.85628" r="30.22227" fill="#f2f2f2"/><circle cx="855.12443" cy="357.08571" r="30.22227" fill="#f2f2f2"/><circle cx="931.33599" cy="476.20328" r="30.22227" fill="#f2f2f2"/><path d="M902.12334,818.28782s47.00551-65.10167-27.83955-140.81008Z" transform="translate(-74.74823 -73.11866)" fill="#f2f2f2"/><path d="M938.55141,825.7931s32.12667-73.59091,135.38474-47.68113Z" transform="translate(-74.74823 -73.11866)" fill="#f2f2f2"/><path d="M654.12394,821.53777c.72508-.72037,17.92808-18.14191,32.51062-59.47976,13.3778-37.92552,26.87794-104.06143,15.21265-203.76178-22.10036-188.876,91.22771-309.2471,92.37693-310.44114l-3.35459-3.2215c-.29127.3028-29.42935,30.93317-55.3538,84.70623A416.27955,416.27955,0,0,0,697.22814,558.837c22.06224,188.5535-45.69813,258.71847-46.38485,259.40614Z" transform="translate(-74.74823 -73.11866)" fill="#f2f2f2"/><circle cx="754.27425" cy="141.34925" r="30.22227" fill="#f2f2f2"/><circle cx="635.20941" cy="227.14603" r="30.22227" fill="#f2f2f2"/><circle cx="680.80014" cy="314.85628" r="30.22227" fill="#f2f2f2"/><circle cx="589.12443" cy="357.08571" r="30.22227" fill="#f2f2f2"/><circle cx="665.33599" cy="476.20328" r="30.22227" fill="#f2f2f2"/><path d="M636.12334,818.28782s47.00551-65.10167-27.83955-140.81008Z" transform="translate(-74.74823 -73.11866)" fill="#f2f2f2"/><path d="M672.55141,825.7931s32.12667-73.59091,135.38474-47.68113Z" transform="translate(-74.74823 -73.11866)" fill="#f2f2f2"/><path d="M543.245,212.10646v-54.44a125.247,125.247,0,0,1-80.85877-60.18884l-.00128.001a23.78923,23.78923,0,0,1-14.22,4.68H404.93649A178.54914,178.54914,0,0,0,543.245,212.10646Z" transform="translate(-74.74823 -73.11866)" fill="#3f3d56"/><path d="M543.245,154.54646V102.24867a29.12112,29.12112,0,0,0-29.13-29.13h-41.97v5.05a23.91663,23.91663,0,0,1-7.3988,17.32886A122.29832,122.29832,0,0,0,543.245,154.54646Z" transform="translate(-74.74823 -73.11866)" fill="#3f3d56"/><path d="M341.35629,102.15864H314.325a23.987,23.987,0,0,1-23.98-23.99v-5.05h-39.38a29.12753,29.12753,0,0,0-29.13,29.13v648.2a29.07918,29.07918,0,0,0,29.13,29.11h263.15a28.36025,28.36025,0,0,0,3.59-.22,29.14642,29.14642,0,0,0,25.54-28.88995V273.2765C447.536,262.18635,367.7869,193.89741,341.35629,102.15864Z" transform="translate(-74.74823 -73.11866)" fill="#3f3d56"/><path d="M401.65652,102.15864H344.51627C370.81686,192.1974,449.196,259.18635,543.245,270.22651V215.20643A181.66781,181.66781,0,0,1,401.65652,102.15864Z" transform="translate(-74.74823 -73.11866)" fill="#3f3d56"/><rect x="428.75177" y="751.20134" width="496" height="2" fill="#3f3d56"/><circle cx="220.3974" cy="107.99796" r="7" fill="#f2f2f2"/><polygon points="197.397 159.82 195.575 159.82 195.575 157.998 195.22 157.998 195.22 159.82 193.397 159.82 193.397 160.176 195.22 160.176 195.22 161.998 195.575 161.998 195.575 160.176 197.397 160.176 197.397 159.82" fill="#f2f2f2"/><polygon points="320.397 68.82 318.575 68.82 318.575 66.998 318.22 66.998 318.22 68.82 316.397 68.82 316.397 69.176 318.22 69.176 318.22 70.998 318.575 70.998 318.575 69.176 320.397 69.176 320.397 68.82" fill="#f2f2f2"/><polygon points="215.397 231.82 213.575 231.82 213.575 229.998 213.22 229.998 213.22 231.82 211.397 231.82 211.397 232.176 213.22 232.176 213.22 233.998 213.575 233.998 213.575 232.176 215.397 232.176 215.397 231.82" fill="#f2f2f2"/><polygon points="299.397 178.82 297.575 178.82 297.575 176.998 297.22 176.998 297.22 178.82 295.397 178.82 295.397 179.176 297.22 179.176 297.22 180.998 297.575 180.998 297.575 179.176 299.397 179.176 299.397 178.82" fill="#f2f2f2"/><polygon points="419.397 211.82 417.575 211.82 417.575 209.998 417.22 209.998 417.22 211.82 415.397 211.82 415.397 212.176 417.22 212.176 417.22 213.998 417.575 213.998 417.575 212.176 419.397 212.176 419.397 211.82" fill="#f2f2f2"/><circle cx="398.3974" cy="124.99796" r="4" fill="#ff6584"/><path d="M329.84564,291.91661l-2.27.35c.71,4.54,1.27,9.18,1.68,13.77l2.29-.2C331.13562,301.18663,330.56561,296.50664,329.84564,291.91661Z" transform="translate(-74.74823 -73.11866)" fill="#e6e6e6"/><path d="M323.63562,264.57658l-2.2.67005c1.33,4.4,2.52,8.91,3.53,13.4l2.25-.51C326.18561,273.5966,324.97565,269.0366,323.63562,264.57658Z" transform="translate(-74.74823 -73.11866)" fill="#e6e6e6"/><path d="M313.72565,238.35661l-2.09.96c1.92,4.19,3.72,8.49,5.35,12.79l2.15-.81C317.48566,246.94658,315.67566,242.58659,313.72565,238.35661Z" transform="translate(-74.74823 -73.11866)" fill="#e6e6e6"/><path d="M300.32562,213.77659l-1.94,1.23005c2.47,3.87994,4.84,7.9,7.04,11.93l2.02-1.1C305.22565,221.75664,302.82562,217.69658,300.32562,213.77659Z" transform="translate(-74.74823 -73.11866)" fill="#e6e6e6"/><path d="M283.66565,191.24663l-1.75,1.49c2.98,3.5,5.88,7.16,8.62,10.86l1.84-1.37C289.6156,198.48662,286.68561,194.7866,283.66565,191.24663Z" transform="translate(-74.74823 -73.11866)" fill="#e6e6e6"/><path d="M264.08563,171.18663l-1.53,1.71c3.44,3.07,6.81,6.3,10.02,9.59l1.65-1.61C270.97565,177.54661,267.56561,174.2866,264.08563,171.18663Z" transform="translate(-74.74823 -73.11866)" fill="#e6e6e6"/><path d="M241.96564,153.9666l-1.29,1.9c3.82,2.57,7.6,5.31,11.23,8.14l1.42-1.81006C249.64563,159.33659,245.82562,156.56663,241.96564,153.9666Z" transform="translate(-74.74823 -73.11866)" fill="#e6e6e6"/><path d="M221.83563,142.00664v2.6c2.39,1.25,4.76,2.56,7.08,3.9l1.15-1.99006Q226.0156,144.1766,221.83563,142.00664Z" transform="translate(-74.74823 -73.11866)" fill="#e6e6e6"/><path d="M329.32592,507.9195c.373-2.236.71425-4.5192,1.01475-6.78518l2.27933.30226c-.30389,2.29158-.649,4.59921-1.02589,6.86072Z" transform="translate(-74.74823 -73.11866)" fill="#e6e6e6"/><path d="M322.9169,534.89889l2.19741.68431c1.37871-4.44384,2.62647-8.99609,3.70743-13.53149l-2.23928-.52959C325.51146,526.00854,324.28553,530.504,322.9169,534.89889Z" transform="translate(-74.74823 -73.11866)" fill="#e6e6e6"/><path d="M312.87548,560.73043l2.08631.978c1.98369-4.2078,3.84038-8.54364,5.52458-12.88411l-2.14578-.8371C316.67628,552.28074,314.83935,556.5696,312.87548,560.73043Z" transform="translate(-74.74823 -73.11866)" fill="#e6e6e6"/><path d="M299.364,584.964l1.92823,1.25186c2.54321-3.8994,4.983-7.94236,7.2544-12.00964l-2.00525-1.12476C304.29962,577.10379,301.87956,581.09978,299.364,584.964Z" transform="translate(-74.74823 -73.11866)" fill="#e6e6e6"/><path d="M282.64733,607.10263l1.74272,1.51c3.05929-3.52841,6.02513-7.19843,8.83619-10.91033l-1.84138-1.377C288.61324,599.99419,285.677,603.61918,282.64733,607.10263Z" transform="translate(-74.74823 -73.11866)" fill="#e6e6e6"/><path d="M263.07248,626.74775l1.51427,1.72861c3.51621-3.06749,6.95467-6.304,10.24042-9.59211l-1.62648-1.629C269.95233,620.51016,266.54345,623.70165,263.07248,626.74775Z" transform="translate(-74.74823 -73.11866)" fill="#e6e6e6"/><path d="M241.01952,643.53825l1.27021,1.92364c3.88265-2.56378,7.73865-5.29636,11.43808-8.112l-1.39026-1.83593C248.67354,638.30625,244.86479,641.00763,241.01952,643.53825Z" transform="translate(-74.74823 -73.11866)" fill="#e6e6e6"/><path d="M230.32562,652.76658c-2.78,1.57-5.62,3.09-8.49,4.53v-2.58c2.48-1.26,4.94-2.59,7.35-3.94Z" transform="translate(-74.74823 -73.11866)" fill="#e6e6e6"/><path d="M330.0006,320.22234l2.29862-.04178c.04223,2.3211.04537,4.6545.00943,6.93606l-2.29844-.03589C330.04516,324.82513,330.04215,322.5176,330.0006,320.22234Z" transform="translate(-74.74823 -73.11866)" fill="#e6e6e6"/><path d="M448.04,218.74085H448.04c26.02641,0,47.125,23.41479,47.125,52.29839v36.69693H483.87874l-6.53412-13.59651,1.63354,13.59651H406.43421L400.4941,295.3757l1.485,12.36047h-8.16767V278.9225C393.81144,245.68513,418.09038,218.74085,448.04,218.74085Z" transform="translate(-74.74823 -73.11866)" fill="#2f2e41"/><path d="M365.665,483.25868s-12,35,4,34,15-38,15-38Z" transform="translate(-74.74823 -73.11866)" fill="#ffb9b9"/><path d="M388.665,320.25868h-11l-10,97s-11,1-6,12,5,7,4,15-2,12-2,13,5,0,0,7-8,10-8,14,5,14,5,14,24-16,26-3l13-68,4-48Z" transform="translate(-74.74823 -73.11866)" fill="#6c63ff"/><polygon points="419.917 260.14 427.917 260.14 423.917 370.14 403.917 328.14 419.917 260.14" fill="#6c63ff"/><polygon points="419.917 260.14 427.917 260.14 423.917 370.14 403.917 328.14 419.917 260.14" opacity="0.1"/><path d="M433.665,677.25868s79.93847-34.9552,88.30314-89.10764a59.89706,59.89706,0,0,0,.69686-8.13252c1-58.75984-13-71.75984-13-71.75984l-91,14Z" transform="translate(-74.74823 -73.11866)" fill="#6c63ff"/><path d="M433.665,677.25868s79.93847-34.9552,88.30314-89.10764a59.89706,59.89706,0,0,0,.69686-8.13252c1-58.75984-13-71.75984-13-71.75984l-91,14Z" transform="translate(-74.74823 -73.11866)" opacity="0.1"/><path d="M463.665,528.25868l20,92,9,31s4,26,12,44,18,54,18,54h19l-19-114s-7-104-15-112S463.665,528.25868,463.665,528.25868Z" transform="translate(-74.74823 -73.11866)" fill="#ffb9b9"/><circle cx="379.41678" cy="194.64001" r="31" fill="#ffb9b9"/><path d="M432.665,284.25868s4,25-19,32,49,108,49,108,32-89,24-97c0,0-29-4-26-21s5-19,5-19Z" transform="translate(-74.74823 -73.11866)" fill="#ffb9b9"/><polygon points="369.917 471.14 438.917 453.14 401.917 361.14 369.917 471.14" fill="#3f3d56"/><path d="M543.665,741.25868l-29,2s-5,22,3,36c4.2,7.35,7.02187,18.55875,8.755,27.54872a24.484,24.484,0,0,0,23.14746,20.0661c6.30935.15647,11.69646-1.99488,12.09751-9.61482,1-19-16-54-16-54Z" transform="translate(-74.74823 -73.11866)" fill="#2f2e41"/><path d="M391.655,779.55867h-27.33a126.92674,126.92674,0,0,1,4.45-19.54v-.01c1.07-3.52,1.89-5.75,1.89-5.75l20,12,.49,6.68Z" transform="translate(-74.74823 -73.11866)" fill="#2f2e41"/><path d="M460.665,404.25868s-17.22437-67.87708-42.11219-89.93854c0,0-38.88781-4.06146-40.88781,6.93854l27,78s-7,9,1,19l-40,324s5,5,3,11,5,21,5,21,17-3,32,0,46-18,46-18l25-281s40,55,46,113v-62s-6-12-4-19-5-21-5-21l-6-21-20-60s14-19,10-41l5-31s-27.50527-14.89158-32.75264-11.44579C469.91237,321.81289,484.665,364.25868,460.665,404.25868Z" transform="translate(-74.74823 -73.11866)" fill="#6c63ff"/><path d="M428.14523,230.98134A24.71483,24.71483,0,0,1,447.646,221.03h.9252c17.83856,0,32.29949,16.14184,32.29949,36.05384v.00007h-5.97723l-.96531-7.34758-1.41533,7.34758H437.06217l-2.97009-6.21619.74254,6.21619h-6.97415q-4.88157,24.24315,14.028,48.4863h-11.8803L424.0681,293.1378l1.485,12.43238H402.90636l-4.4551-28.59456C398.45126,255.561,410.89381,237.40173,428.14523,230.98134Z" transform="translate(-74.74823 -73.11866)" fill="#2f2e41"/><path d="M825.344,771.94526c-8.93707,33.03677-39.54854,53.49727-39.54854,53.49727s-16.12163-33.10268-7.18456-66.13945,39.54854-53.49727,39.54854-53.49727S834.281,738.90849,825.344,771.94526Z" transform="translate(-74.74823 -73.11866)" fill="#6c63ff"/><path d="M744.04158,771.94526c8.93706,33.03677,39.54853,53.49727,39.54853,53.49727s16.12163-33.10268,7.18456-66.13945-39.54854-53.49727-39.54854-53.49727S735.10451,738.90849,744.04158,771.94526Z" transform="translate(-74.74823 -73.11866)" fill="#6c63ff"/><path d="M757.174,764.84531c24.52345,23.87258,27.51881,60.57029,27.51881,60.57029s-36.765-2.00739-61.28844-25.88-27.5188-60.57029-27.5188-60.57029S732.65052,740.97273,757.174,764.84531Z" transform="translate(-74.74823 -73.11866)" fill="#3f3d56"/><path d="M812.21157,764.84531c-24.52344,23.87258-27.5188,60.57029-27.5188,60.57029s36.765-2.00739,61.28843-25.88S873.5,738.96534,873.5,738.96534,836.735,740.97273,812.21157,764.84531Z" transform="translate(-74.74823 -73.11866)" fill="#3f3d56"/></svg>